<svg width="18" height="18" viewBox="0 0 18 18" fill="none" xmlns="http://www.w3.org/2000/svg">
<path d="M10.6263 14.0273C10.8473 14.0273 11.0593 13.9395 11.2155 13.7832C11.3718 13.627 11.4596 13.415 11.4596 13.194V11.5273C11.4596 11.3063 11.3718 11.0944 11.2155 10.9381C11.0593 10.7818 10.8473 10.694 10.6263 10.694C10.4053 10.694 10.1933 10.7818 10.037 10.9381C9.88076 11.0944 9.79296 11.3063 9.79296 11.5273V13.194C9.79296 13.415 9.88076 13.627 10.037 13.7832C10.1933 13.9395 10.4053 14.0273 10.6263 14.0273ZM7.29296 14.0273C7.51397 14.0273 7.72593 13.9395 7.88221 13.7832C8.03849 13.627 8.12629 13.415 8.12629 13.194V11.5273C8.12629 11.3063 8.03849 11.0944 7.88221 10.9381C7.72593 10.7818 7.51397 10.694 7.29296 10.694C7.07194 10.694 6.85998 10.7818 6.7037 10.9381C6.54742 11.0944 6.45963 11.3063 6.45963 11.5273V13.194C6.45963 13.415 6.54742 13.627 6.7037 13.7832C6.85998 13.9395 7.07194 14.0273 7.29296 14.0273ZM14.793 4.02733H13.643L12.2013 1.15233C12.1572 1.04654 12.0918 0.950971 12.0092 0.871599C11.9265 0.792227 11.8284 0.730756 11.7209 0.691027C11.6134 0.651298 11.4989 0.634165 11.3845 0.640699C11.2701 0.647232 11.1582 0.677292 11.056 0.728999C10.9537 0.780707 10.8632 0.85295 10.7901 0.941216C10.717 1.02948 10.663 1.13187 10.6312 1.24199C10.5995 1.3521 10.5908 1.46758 10.6058 1.5812C10.6207 1.69482 10.6589 1.80414 10.718 1.90233L11.7763 4.02733H6.14296L7.20129 1.90233C7.28218 1.70808 7.28659 1.49043 7.21364 1.29306C7.14069 1.0957 6.99579 0.93324 6.80801 0.838297C6.62023 0.743354 6.40349 0.72296 6.2013 0.781208C5.99911 0.839456 5.82644 0.972035 5.71796 1.15233L4.27629 4.02733H3.12629C2.53728 4.03628 1.97036 4.25295 1.5255 4.6391C1.08064 5.02526 0.786437 5.5561 0.694768 6.138C0.603098 6.7199 0.719855 7.31548 1.02445 7.8197C1.32904 8.32392 1.8019 8.70438 2.35963 8.89399L2.97629 15.1107C3.03848 15.7295 3.32908 16.3029 3.79135 16.7189C4.25363 17.135 4.85437 17.3638 5.47629 17.3607H12.4596C13.0815 17.3638 13.6823 17.135 14.1446 16.7189C14.6068 16.3029 14.8974 15.7295 14.9596 15.1107L15.5763 8.89399C16.1352 8.70382 16.6088 8.32197 16.9132 7.81606C17.2176 7.31016 17.3331 6.71285 17.2393 6.12995C17.1454 5.54704 16.8483 5.01615 16.4006 4.6313C15.9528 4.24646 15.3833 4.0325 14.793 4.02733ZM13.2846 14.944C13.2639 15.1503 13.167 15.3414 13.0129 15.4801C12.8588 15.6188 12.6586 15.695 12.4513 15.694H5.46796C5.26065 15.695 5.0604 15.6188 4.90631 15.4801C4.75222 15.3414 4.65535 15.1503 4.63463 14.944L4.04296 9.02733H13.8763L13.2846 14.944ZM14.793 7.36066H3.12629C2.90528 7.36066 2.69332 7.27286 2.53704 7.11658C2.38076 6.9603 2.29296 6.74834 2.29296 6.52733C2.29296 6.30631 2.38076 6.09435 2.53704 5.93807C2.69332 5.78179 2.90528 5.69399 3.12629 5.69399H14.793C15.014 5.69399 15.2259 5.78179 15.3822 5.93807C15.5385 6.09435 15.6263 6.30631 15.6263 6.52733C15.6263 6.74834 15.5385 6.9603 15.3822 7.11658C15.2259 7.27286 15.014 7.36066 14.793 7.36066Z" fill="black"/>
</svg>
