<svg width="18" height="18" viewBox="0 0 18 18" fill="none" xmlns="http://www.w3.org/2000/svg">
<path d="M13.1215 7.48336L13.0335 11.4834H12.4255L12.3375 7.48336H13.1215ZM12.7615 13.1074C12.6229 13.1074 12.5055 13.0594 12.4095 12.9634C12.3135 12.8674 12.2655 12.75 12.2655 12.6114C12.2655 12.4727 12.3135 12.3554 12.4095 12.2594C12.5055 12.1634 12.6229 12.1154 12.7615 12.1154C12.8949 12.1154 13.0069 12.1634 13.0975 12.2594C13.1935 12.3554 13.2415 12.4727 13.2415 12.6114C13.2415 12.75 13.1935 12.8674 13.0975 12.9634C13.0069 13.0594 12.8949 13.1074 12.7615 13.1074Z" fill="white"/>
<path d="M8.54663 11.1359C9.51132 10.632 10.2432 9.80041 10.7018 8.81381C10.8314 8.53847 11.0077 8.1897 11.1528 8.01348C10.9869 8.16951 10.6585 8.35491 10.3993 8.49258C9.46737 8.98127 8.70974 9.74511 8.239 10.7265C8.60351 9.596 8.60729 8.32616 8.21654 7.103C8.11284 6.77811 7.99532 6.3596 7.97804 6.09894C7.96248 6.3596 7.84496 6.77811 7.74127 7.10302C7.37343 8.25441 7.33295 9.4799 7.7188 10.7265C7.24993 9.74878 6.49396 8.98313 5.5585 8.4926C5.29753 8.35492 4.97089 8.16953 4.80498 8.0135C4.95015 8.18972 5.12644 8.53849 5.25605 8.81383C5.71743 9.81066 6.44531 10.6239 7.40599 11.134C6.47872 10.8251 5.54452 10.8583 4.65808 11.1763C4.40749 11.268 4.08258 11.3708 3.88037 11.3855C4.08258 11.3984 4.40749 11.503 4.65808 11.5929C5.61085 11.9347 6.59857 11.9459 7.584 11.5691C7.12363 11.8441 6.77675 12.2372 6.54187 12.7402C6.47447 12.8871 6.38114 13.0706 6.3051 13.1624C6.39151 13.0816 6.56434 12.9825 6.70259 12.9109C7.42614 12.5313 7.89292 11.8011 7.97631 11.3874C7.97804 11.3855 7.97804 11.3855 7.97804 11.3855C7.97804 11.3855 7.97804 11.3855 7.97977 11.3873C8.11953 11.9072 8.56545 12.549 9.25521 12.9109C9.39347 12.9825 9.56457 13.0816 9.65271 13.1624C9.57666 13.0706 9.48334 12.887 9.41594 12.7402C9.20164 12.2813 8.875 11.8866 8.46022 11.6223C8.43084 11.6039 8.40146 11.5856 8.37381 11.5691C9.37009 11.95 10.3587 11.9306 11.298 11.5929C11.5503 11.503 11.8752 11.3984 12.0757 11.3855C11.8752 11.3708 11.5503 11.268 11.298 11.1762C10.3868 10.8487 9.47204 10.8334 8.54663 11.1359Z" fill="white"/>
<path d="M9.00069 16.9915H4.152C1.37561 16.9915 0.215445 14.8839 1.55963 12.309L4.05599 7.533L6.40832 3.04594C7.83252 0.318019 10.1689 0.318019 11.5931 3.04594L13.9454 7.5415L16.4417 12.3175C17.7859 14.8924 16.6178 17 13.8494 17H9.00069V16.9915Z" stroke="white" stroke-linecap="round" stroke-linejoin="round"/>
</svg>
